PathFileType	4	(X/Y/Z)	C:/Users/beibeiliu/ov580/test_trc/User2\sequence.18_training_dense_right.trc
DataRate	CameraRate	NumFrames	NumMarkers	Units	OrigDataRate	OrigDataStartFrame	OrigNumFrames
120	120	18	19	mm	120	108	429
Frame#	Time	ThumbCMC			ThumbMCP			ThumbIP			ThumbTip			IndexMCP			IndexPIP			IndexTip			MiddleMCP			MiddlePIP			MiddleTip			RingMCP			RingPIP			RingTip			PinkyMCP			PinkyPIP			PinkyTip			BackHand1			BackHand2			BackHand3	
		X0	Y0	Z0	X1	Y1	Z1	X2	Y2	Z2	X3	Y3	Z3	X4	Y4	Z4	X5	Y5	Z5	X6	Y6	Z6	X7	Y7	Z7	X8	Y8	Z8	X9	Y9	Z9	X10	Y10	Z10	X11	Y11	Z11	X12	Y12	Z12	X13	Y13	Z13	X14	Y14	Z14	X15	Y15	Z15	X16	Y16	Z16	X17	Y17	Z17	X18	Y18	Z18	
107	0.891667	86.1445	18.0583	-0.360837	63.0584	19.8451	-25.4257	37.9607	10.2829	-51.2746	18.1899	-2.82198	-61.8622	45.4967	-26.8319	-60.6928	15.1824	-14.1102	-52.8318	36.4034	-0.984508	-23.7416	30.6371	-43.094	-49.0353	6.39762	-24.8986	-32.1842	30.8155	-12.362	-3.56097	23.5032	-51.4255	-28.7829	5.78915	-32.0978	-8.81986	34.6534	-19.2665	4.35575	21.7937	-61.9359	-7.04367	8.98538	-35.9706	6.12865	39.6987	-24.6933	18.7505	81.8689	-58.7817	0.363302	102.526	-45.9008	24.0156	101.715	-21.3647	-5.34609	
108	0.9	83.9784	14.7602	1.19189	60.5808	19.4836	-28.5177	35.3044	11.8711	-52.7237	17.6232	-8.16737	-60.4571	47.9008	-29.3817	-60.1045	15.8452	-19.378	-50.7951	36.0354	-3.59735	-24.4605	38.7617	-45.5011	-48.6152	6.73157	-33.6694	-31.7397	31.4823	-13.6321	-6.27881	23.6549	-55.353	-29.2859	7.04518	-37.6714	-9.91228	37.9938	-24.286	7.54415	23.5454	-64.4377	-9.05108	11.6919	-40.262	3.83879	39.9071	-27.7217	20.6045	84.6521	-58.9019	1.10117	105.521	-43.9078	23.0624	103.929	-21.6475	-6.41522	
109	0.908333	81.9183	15.9532	-0.0676664	58.2337	18.169	-24.0472	31.706	6.1196	-51.0928	15.7725	-13.9332	-58.7319	50.3244	-28.6652	-60.5192	18.208	-23.7445	-54.0349	36.1775	-7.65842	-22.3458	36.187	-51.3553	-48.6263	9.62454	-34.689	-35.2021	30.9029	-19.3313	-4.64042	27.794	-62.1581	-28.0765	8.3882	-45.4329	-12.5766	36.2653	-27.8493	5.79086	29.8359	-68.7399	-11.9905	13.7362	-44.237	4.99716	41.0042	-31.8277	16.9032	87.9579	-57.9107	-0.574535	107.181	-46.5431	25.2164	102.287	-20.43	-3.26358	
110	0.916667	78.0509	14.418	-2.27703	52.1109	16.1419	-24.2498	28.4009	7.5937	-49.182	12.7765	-17.8513	-60.9376	51.1147	-33.132	-58.808	19.1269	-27.1117	-49.9608	35.3359	-9.8605	-23.3336	43.6543	-50.2111	-51.8852	11.0164	-39.9197	-32.624	32.6152	-21.5753	-5.21071	34.6502	-64.9564	-30.8493	11.7625	-44.9273	-15.7701	35.2587	-30.5833	1.94671	33.674	-73.9556	-13.3047	16.367	-49.6968	-0.252778	40.4537	-35.2774	19.0665	91.1304	-58.2857	0.217024	107.447	-42.8217	27.7887	103.699	-19.7877	-6.06899	
111	0.925	73.3917	12.2301	1.65713	47.997	14.3486	-20.4418	25.2767	5.35518	-46.2709	11.9422	-19.7557	-57.8053	50.8401	-31.3729	-60.7221	19.3584	-27.9439	-50.4961	36.6197	-11.2879	-23.8012	45.843	-52.8481	-52.0837	13.1667	-43.5369	-39.495	33.222	-22.2985	-6.67454	37.5444	-67.66	-33.3951	14.7242	-51.4003	-19.8523	39.0706	-33.7917	1.97051	41.5542	-75.1794	-15.8485	17.9726	-56.1811	-2.32187	37.8729	-40.2488	15.7813	93.3955	-53.3248	-5.9064	108.561	-43.709	26.2442	104.334	-14.3405	-2.09695	
112	0.933333	70.2907	13.2871	3.0079	45.1385	9.62765	-20.2042	22.6283	0.530503	-44.238	10.5095	-24.4676	-58.1594	51.0681	-26.636	-60.8806	20.4884	-29.8817	-49.0986	35.2333	-16.2923	-23.1109	44.4883	-50.0364	-55.4849	14.9893	-48.8523	-39.7298	29.8221	-24.0122	-8.60664	40.4107	-66.2414	-39.0388	16.2559	-54.9821	-21.1628	40.5782	-37.4957	1.6648	44.8331	-79.1235	-18.3314	18.3317	-62.7821	-2.95568	39.6687	-44.3449	13.8605	97.1984	-54.3158	-6.53267	110.05	-40.392	24.3301	100.501	-12.9268	-2.8469	
113	0.941667	67.0811	15.8815	6.07109	39.3808	13.5096	-17.1313	19.5739	-2.16277	-46.2461	9.08177	-24.792	-57.452	51.8836	-28.7051	-60.6107	20.7516	-29.6357	-52.954	38.897	-17.4616	-19.7899	50.3001	-53.6607	-52.7399	16.5867	-50.9085	-35.6273	28.3524	-30.6885	-8.21623	44.2328	-66.5171	-40.1028	18.9123	-62.8754	-21.1598	41.0294	-39.4895	1.12858	46.995	-81.036	-21.9362	22.2314	-64.4132	-7.97233	37.8574	-49.0249	13.3586	97.4549	-50.7078	-7.33661	109.679	-35.6657	26.7499	99.8606	-9.26135	-0.250128	
114	0.95	63.6834	13.4226	5.64654	38.9609	9.92277	-14.9222	20.3378	-4.22107	-40.2738	12.405	-28.6694	-57.8266	50.7997	-27.2794	-60.7503	21.9331	-33.1147	-49.7127	37.7001	-19.6125	-19.8142	51.2023	-54.8227	-54.8866	19.6161	-52.2515	-41.4497	29.0648	-32.1406	-8.86461	47.5894	-67.0558	-42.2704	21.375	-63.5415	-22.0242	37.776	-45.0535	0.802562	54.1464	-83.5976	-23.0194	24.9045	-70.0371	-8.49052	38.8934	-52.9024	12.3098	101.937	-48.4295	-3.14896	111.471	-33.3296	21.6473	98.4122	-6.10697	0.593089	
115	0.958333	61.6524	14.5151	10.9372	35.914	10.3876	-14.6698	18.0193	-3.30026	-41.395	13.5212	-29.6296	-55.5768	54.2569	-29.2925	-59.3222	22.7262	-35.8131	-50.0996	36.4481	-16.6829	-20.6426	54.3796	-51.3906	-56.3506	20.956	-56.3828	-37.2742	31.952	-31.2513	-7.23706	55.4559	-70.1524	-39.8657	25.6625	-66.6315	-27.0601	40.3055	-47.3381	0.336532	58.208	-80.8569	-25.4	30.2648	-71.3656	-11.6432	41.5055	-52.1773	8.35858	102.956	-44.7893	-3.30857	111.7	-30.8095	25.2148	100.412	-7.16003	-0.981648	
116	0.966667	61.6939	9.91231	9.98137	35.5249	7.09749	-14.6504	17.5523	-5.53769	-43.6783	13.6109	-27.4631	-57.0714	55.1195	-27.4924	-60.0848	23.3759	-36.3455	-50.3671	38.9862	-21.9321	-19.7229	55.7024	-48.9414	-58.3877	25.5697	-58.476	-38.911	34.3404	-37.93	-6.97158	55.8509	-68.3784	-43.8876	30.2369	-70.4692	-27.7087	42.1233	-49.395	-2.32057	63.8359	-78.8242	-28.9353	35.711	-77.3536	-15.863	46.4063	-53.2166	6.14863	104.341	-41.1468	-8.45467	115.208	-25.8998	26.4393	99.2856	-0.485527	1.73667	
117	0.975	59.4325	7.20492	12.0405	34.1095	6.19699	-12.5739	22.3354	-10.1671	-41.3206	16.3996	-29.4552	-62.8057	54.1374	-24.7869	-63.4702	27.4783	-37.6985	-54.0559	37.677	-24.1891	-21.5554	61.0765	-47.7011	-59.2627	31.1961	-58.7699	-48.366	35.937	-40.7219	-9.99266	63.6514	-69.0949	-45.7267	37.0818	-71.6265	-31.4639	47.7404	-47.527	-3.76472	69.0135	-81.8593	-31.1364	41.7538	-79.4635	-18.3818	51.7863	-55.0252	5.71837	106.892	-37.2589	-8.55257	115.373	-28.8363	27.4712	96.6159	-1.55346	-0.621357	
118	0.983333	55.7269	7.74091	15.5119	35.5171	0.0159944	-14.2434	21.0019	-10.7395	-41.9137	21.3579	-30.0241	-64.1053	59.8729	-20.4171	-61.5016	32.797	-39.5054	-58.5099	37.5312	-26.4961	-23.8582	68.4671	-42.4874	-59.4398	38.1495	-60.2919	-51.6312	41.7415	-46.4602	-12.062	69.836	-67.8626	-49.92	44.2907	-73.2057	-32.1054	51.0373	-49.5363	-7.18857	81.4409	-76.7454	-32.9273	49.4798	-80.8882	-17.341	55.7862	-59.7896	2.38378	112.205	-32.8738	-6.03851	116.705	-25.2445	27.3273	97.0384	1.35846	1.57564	
119	0.991667	51.0338	1.278	16.2125	32.0743	-3.75902	-12.6136	23.8992	-14.4228	-42.4606	24.9264	-30.549	-65.4531	61.8494	-15.0555	-61.1028	40.9076	-41.3474	-60.5651	41.0554	-31.7583	-26.6081	72.4395	-38.1138	-64.4929	46.2054	-60.0935	-55.04	48.1633	-51.0102	-17.4837	79.5564	-56.6762	-53.4183	54.6392	-72.9972	-38.8039	56.8095	-53.4407	-12.8381	93.0991	-72.0696	-37.3415	60.2875	-79.1024	-25.5382	63.6757	-60.6056	-0.77834	111.311	-24.8657	-4.66582	115.06	-17.3475	25.5898	89.2689	5.46158	6.25218	
120	1	45.3699	-3.31563	19.4858	28.1862	-6.66048	-13.5946	24.0194	-16.8307	-44.7197	27.1651	-28.4954	-67.9126	61.6434	-14.1744	-63.4647	43.3473	-38.4501	-64.5412	43.3968	-35.8966	-29.4408	73.1459	-28.7366	-66.3186	55.6428	-56.9308	-62.1068	51.9408	-50.6392	-20.7534	86.3051	-48.8392	-57.0589	65.4253	-70.6557	-48.8168	64.2639	-55.9973	-15.5941	100.821	-62.5917	-42.6258	72.9929	-78.7403	-35.7237	70.3304	-62.1444	-5.16901	109.867	-16.4341	-7.78206	112.117	-12.3746	31.2355	85.4767	7.90859	10.1146	
121	1.00833	41.1474	-8.85907	21.0168	23.5054	-13.2495	-6.01979	22.5501	-17.2197	-45.0345	26.1278	-25.7892	-68.7787	59.655	-6.27952	-58.9262	43.1046	-34.7521	-65.1188	43.4084	-35.1247	-29.028	77.874	-20.1803	-62.9571	58.9796	-50.6749	-66.4919	57.3065	-48.1832	-22.6749	91.359	-39.9052	-59.5975	71.7495	-64.8452	-52.1247	66.6393	-51.0653	-19.0346	103.599	-51.5696	-47.8125	79.1661	-71.1967	-43.7013	75.4271	-63.4748	-10.1599	108.271	-10.0396	-4.61057	110.294	-12.6403	30.5766	80.8601	5.20384	12.6071	
122	1.01667	36.4485	-13.9606	23.946	19.2571	-16.9555	-4.77042	18.4159	-18.1947	-40.2193	27.531	-22.2891	-65.8247	51.415	-1.59962	-57.7879	42.2341	-31.3721	-66.3271	39.2453	-38.1973	-34.8744	72.2891	-10.8472	-60.743	61.9044	-44.4086	-67.9566	55.6505	-47.8441	-26.4129	89.3958	-30.4277	-61.0236	73.2254	-57.3898	-57.4094	70.6605	-50.9998	-20.9645	100.552	-39.5041	-50.2062	83.9602	-63.2864	-49.7564	81.5997	-62.403	-13.889	105.808	-4.45567	-2.33615	107.575	-10.9821	36.3781	70.6	7.14497	21.8512	
123	1.025	33.5411	-20.4099	29.4372	16.0031	-19.1521	-3.54434	14.8151	-19.3111	-34.5382	17.3154	-20.5366	-65.2638	45.0847	1.975	-53.0224	38.2037	-25.9864	-67.9259	38.9877	-39.2507	-30.9102	67.6096	-6.9998	-59.626	57.3626	-40.4547	-67.1625	53.5755	-47.6127	-29.2652	84.3318	-22.4103	-61.6984	71.7331	-50.4751	-59.9694	70.0088	-49.9459	-25.1736	103.998	-30.5994	-48.5574	85.4063	-60.9404	-50.3398	80.8044	-62.5181	-18.3781	101.234	-2.10657	2.05291	102.348	-7.73714	38.296	65.3609	3.81577	24.7919	
124	1.03333	33.4439	-24.5189	29.3127	14.9622	-23.0222	2.46064	10.0286	-19.9108	-33.9708	16.2891	-19.8126	-60.0556	39.439	2.35265	-51.8253	35.1138	-24.642	-66.1077	33.1332	-40.9745	-34.8223	57.9911	-3.60493	-59.8309	56.065	-35.3081	-69.8077	53.5005	-47.3546	-28.6215	82.1069	-18.0049	-59.0205	72.0345	-47.0372	-62.6471	66.2241	-47.2861	-25.3246	99.8269	-26.9433	-51.2878	84.1281	-55.7978	-52.9269	78.772	-58.6039	-23.0893	93.1661	-1.50946	3.08776	94.9923	-7.93357	40.1362	59.012	2.40105	26.7944	
